# xmcd CD database file
#
# Track frame offsets:
#	150
#	17637
#	35779
#	53266
#
# Disc length: 950 seconds
#
# Revision: 2
# Processed by: cddbd v1.5.1PL0 Copyright (c) Steve Scherf et al.
# Submitted via: CDex 1.51
#
DISCID=2603b404
DTITLE=佐藤裕美 - ハローグッバイ
DYEAR=1900
DGENRE=
TTITLE0=ハローグッバイ
TTITLE1=ラブレター2005ver.
TTITLE2=ハローグッバイ（off vocal）
TTITLE3=ラブレター2005ver.（off voca）
EXTD=
EXTT0=
EXTT1=
EXTT2=
EXTT3=
PLAYORDER=
